<?xml version="1.0" standalone="no"?>
<!DOCTYPE svg PUBLIC "-//W3C//DTD SVG 20010904//EN"
 "http://www.w3.org/TR/2001/REC-SVG-20010904/DTD/svg10.dtd">
<svg version="1.0" xmlns="http://www.w3.org/2000/svg"
 width="512.000000pt" height="512.000000pt" viewBox="0 0 512.000000 512.000000"
 preserveAspectRatio="xMidYMid meet">
<metadata>
Created by potrace 1.14, written by Peter Selinger 2001-2017
</metadata>
<g transform="translate(0.000000,512.000000) scale(0.100000,-0.100000)"
fill="#000000" stroke="none">
<path d="M1510 4669 c-14 -5 -36 -20 -48 -32 -48 -44 -52 -65 -52 -250 0 -164
1 -176 23 -207 38 -57 71 -75 136 -75 48 0 64 5 95 29 59 45 66 72 66 264 0
159 -1 171 -22 202 -13 18 -35 42 -50 53 -31 23 -111 32 -148 16z"/>
<path d="M3528 4660 c-64 -34 -81 -77 -86 -211 -3 -65 -1 -148 3 -184 6 -57
12 -73 42 -106 81 -89 217 -70 264 37 18 40 20 62 17 213 -3 167 -3 168 -32
205 -49 65 -135 84 -208 46z"/>
<path d="M943 4379 c-174 -22 -319 -162 -353 -339 -14 -76 -14 -3186 1 -3265
22 -118 99 -229 200 -288 103 -60 12 -58 1800 -55 l1634 3 68 32 c90 43 169
119 210 202 l32 66 0 1670 0 1670 -31 66 c-54 113 -137 186 -254 225 -44 14
-90 18 -225 18 l-170 1 -6 -100 c-8 -146 -40 -204 -136 -251 -126 -62 -266
-16 -329 108 -20 39 -26 71 -31 149 l-6 99 -764 0 -763 0 0 -78 c0 -99 -20
-167 -65 -219 -115 -135 -323 -108 -408 52 -16 31 -22 63 -25 143 l-4 102
-157 -1 c-86 -1 -184 -5 -218 -10z m3422 -951 c3 -13 4 -601 3 -1308 l-3
-1285 -28 -57 c-16 -32 -48 -75 -73 -97 -87 -76 44 -71 -1700 -71 -1552 0
-1564 0 -1618 21 -72 27 -149 108 -171 181 -13 45 -15 215 -15 1338 0 708 3
1290 7 1293 3 4 813 7 1799 7 l1794 0 5 -22z"/>
<path d="M1470 2847 c-52 -17 -114 -84 -131 -142 -8 -28 -14 -86 -13 -130 0
-94 24 -158 76 -205 l32 -30 -158 0 -158 0 48 33 c67 45 88 91 92 198 9 203
-60 268 -290 277 l-118 4 0 -301 0 -301 1705 0 1705 0 0 80 0 79 -97 3 -98 3
-3 67 -3 67 83 3 83 3 3 37 3 37 -83 3 -83 3 0 65 0 65 91 3 92 3 6 31 c3 17
6 34 6 39 0 5 -70 9 -155 9 l-155 0 -2 -252 -3 -253 -65 -3 c-56 -2 -63 0 -47
12 15 11 17 31 17 145 l0 131 -96 0 -96 0 6 -31 c3 -17 6 -35 6 -40 0 -4 15
-9 33 -11 l32 -3 3 -64 c2 -45 -1 -67 -10 -72 -18 -12 -96 -11 -119 1 -31 17
-50 67 -56 144 -7 91 9 150 52 193 27 27 41 33 76 33 26 0 57 -8 77 -20 l32
-20 29 33 30 32 -37 22 c-47 29 -87 36 -162 31 -127 -9 -210 -102 -218 -248
-6 -100 16 -176 65 -230 l35 -40 -60 0 c-49 0 -62 3 -66 18 -88 291 -146 485
-146 488 0 2 -33 4 -74 4 l-75 0 -35 -112 c-19 -62 -54 -177 -77 -255 l-43
-143 -395 0 c-394 0 -396 0 -365 19 48 29 64 59 64 116 0 61 -19 91 -69 112
-33 14 -34 16 -17 27 49 28 66 54 66 101 0 60 -12 80 -63 107 -35 18 -63 23
-174 26 l-133 4 0 -256 0 -256 -96 0 -96 0 31 29 c71 66 100 211 66 327 -38
130 -168 194 -305 151z m143 -87 c34 -27 50 -80 51 -165 2 -140 -29 -195 -107
-195 -78 0 -107 52 -107 193 0 68 5 101 18 127 29 59 97 78 145 40z m-524 -17
c14 -11 31 -35 38 -54 15 -44 15 -154 0 -199 -15 -44 -68 -80 -118 -80 l-39 0
0 181 0 182 46 -6 c26 -2 58 -14 73 -24z m1016 7 c8 -7 15 -27 15 -46 0 -42
-30 -64 -87 -64 l-43 0 0 66 0 67 50 -5 c27 -3 56 -11 65 -18z m1135 -212 c0
-5 -25 -8 -55 -8 -41 0 -55 4 -55 14 0 16 38 183 47 206 4 12 62 -182 63 -212z
m-1137 11 c12 -7 25 -17 29 -23 10 -14 10 -68 0 -83 -11 -18 -58 -33 -103 -33
l-39 0 0 75 0 75 46 0 c25 0 55 -5 67 -11z m1155 -112 c6 -7 14 -32 18 -55 l7
-42 -103 0 -102 0 7 33 c17 76 18 77 94 77 44 0 72 -5 79 -13z"/>
<path d="M2500 2560 l0 -40 120 0 120 0 0 40 0 40 -120 0 -120 0 0 -40z"/>
<path d="M840 1890 l0 -50 63 0 62 0 -37 -23 c-114 -69 -152 -253 -82 -394 41
-83 90 -114 186 -121 65 -4 80 -1 125 22 28 14 54 29 57 34 3 5 -7 24 -22 42
-27 32 -29 32 -57 18 -52 -26 -84 -30 -120 -13 -48 23 -69 73 -69 165 -1 95
16 146 58 171 39 24 67 24 115 0 l37 -19 29 36 c27 33 27 36 11 46 -58 35 -58
35 212 36 l262 0 0 -224 c0 -137 4 -235 11 -255 14 -39 54 -61 111 -61 61 0
67 7 54 55 -7 22 -14 38 -17 35 -3 -3 -13 1 -22 9 -15 12 -17 41 -17 227 l0
214 448 -2 447 -3 5 -243 5 -244 28 -24 c21 -18 40 -24 75 -24 67 0 73 7 60
58 -7 30 -15 42 -27 40 -14 -3 -16 21 -19 219 l-2 223 722 2 723 3 0 45 0 45
-1707 3 -1708 2 0 -50z"/>
<path d="M3373 1813 c-32 -4 -33 -6 -33 -49 0 -42 -1 -44 -30 -44 -29 0 -30
-2 -30 -45 0 -43 1 -45 30 -45 l30 0 0 -114 c0 -63 4 -126 9 -139 15 -38 49
-65 90 -72 39 -6 127 11 137 27 3 4 -3 23 -13 41 -16 26 -25 31 -47 29 -49 -6
-56 10 -56 124 l0 104 39 0 c35 0 39 3 45 31 11 56 9 59 -39 59 l-45 0 0 50
c0 55 2 54 -87 43z"/>
<path d="M1327 1716 c-26 -7 -50 -16 -53 -19 -3 -3 -1 -22 6 -42 10 -31 16
-36 34 -31 11 4 42 9 67 13 39 5 50 2 68 -16 11 -11 21 -29 21 -40 0 -15 -10
-19 -63 -23 -117 -10 -167 -52 -167 -141 0 -79 58 -124 150 -115 35 4 59 13
77 29 18 17 27 20 30 11 6 -15 55 -42 77 -42 19 0 45 78 29 88 -6 4 -12 56
-14 127 -4 130 -14 158 -64 191 -33 22 -138 27 -198 10z m143 -258 c0 -39 -25
-68 -60 -68 -33 0 -50 17 -50 52 0 33 22 47 73 48 35 0 37 -2 37 -32z"/>
<path d="M1982 1709 c-144 -72 -143 -324 2 -393 46 -22 131 -20 184 4 23 10
42 22 42 25 0 4 -11 21 -25 39 -25 33 -26 33 -65 20 -26 -9 -47 -11 -63 -5
-42 16 -52 39 -52 118 0 69 2 76 28 99 33 28 56 30 98 8 17 -8 32 -14 33 -12
49 68 49 68 30 83 -51 39 -149 45 -212 14z"/>
<path d="M3005 1724 c-11 -3 -37 -10 -57 -15 -36 -9 -37 -10 -26 -42 16 -47
18 -48 80 -35 73 15 108 2 108 -40 0 -29 -1 -29 -65 -34 -78 -7 -124 -31 -148
-81 -27 -53 -16 -107 29 -147 46 -40 123 -43 176 -6 35 23 36 23 54 5 11 -10
33 -21 50 -25 28 -5 31 -3 42 32 9 30 8 41 -3 58 -11 15 -15 50 -15 129 0 123
-12 157 -62 183 -32 17 -127 27 -163 18z m105 -274 c0 -29 -5 -42 -19 -50 -59
-31 -111 13 -77 65 13 20 25 25 56 25 40 0 40 0 40 -40z"/>
<path d="M3715 1718 c-84 -30 -127 -99 -127 -202 0 -81 14 -125 55 -164 41
-39 75 -52 140 -52 123 1 197 80 197 213 0 70 -18 122 -55 160 -50 51 -139 70
-210 45z m110 -98 c39 -43 38 -188 -1 -217 -26 -19 -68 -16 -88 6 -20 22 -31
104 -22 156 13 68 73 98 111 55z"/>
<path d="M4204 1696 l-34 -34 -6 24 c-6 22 -11 24 -60 24 l-54 0 2 -197 3
-198 60 0 60 0 5 121 c6 146 19 174 79 174 37 0 39 2 45 38 12 75 10 82 -30
82 -28 0 -44 -8 -70 -34z"/>
<path d="M2250 1545 c0 -185 7 -213 60 -235 42 -17 116 -8 144 19 28 26 36 26
36 0 0 -18 5 -20 53 -17 l52 3 3 198 2 197 -65 0 -65 0 0 -143 c0 -127 -2
-146 -18 -160 -24 -21 -68 -22 -76 -1 -3 9 -6 81 -6 160 l0 144 -60 0 -60 0 0
-165z"/>
</g>
</svg>
